<svg width="32" height="32" viewBox="0 0 32 32" fill="none" xmlns="http://www.w3.org/2000/svg">
<rect width="32" height="32" rx="8" fill="#E9F0FE"/>
<path d="M19.8489 6C19.8954 6 19.942 6 19.9912 6C20.1053 7.41044 19.567 8.46432 18.9127 9.22751C18.2707 9.98542 17.3916 10.7205 15.9697 10.609C15.8749 9.21872 16.4141 8.24301 17.0675 7.48158C17.6735 6.77197 18.7845 6.14052 19.8489 6Z" fill="#374253"/>
<path d="M24.153 20.6805C24.153 20.6945 24.153 20.7068 24.153 20.72C23.7535 21.9302 23.1835 22.9674 22.4879 23.9299C21.853 24.8038 21.0748 25.9797 19.6855 25.9797C18.4849 25.9797 17.6875 25.2078 16.4571 25.1867C15.1556 25.1656 14.4398 25.8322 13.2498 25.9999C13.1137 25.9999 12.9775 25.9999 12.844 25.9999C11.9702 25.8735 11.265 25.1814 10.7512 24.5579C9.23626 22.7153 8.06558 20.3353 7.84778 17.2896C7.84778 16.991 7.84778 16.6933 7.84778 16.3947C7.93999 14.2149 8.99914 12.4427 10.4069 11.5837C11.1499 11.1271 12.1713 10.738 13.3086 10.9119C13.796 10.9874 14.294 11.1543 14.7305 11.3194C15.1441 11.4784 15.6614 11.7603 16.1515 11.7453C16.4834 11.7357 16.8137 11.5627 17.1483 11.4406C18.1284 11.0867 19.0892 10.6809 20.3556 10.8715C21.8775 11.1016 22.9578 11.7778 23.6252 12.8212C22.3377 13.6406 21.3199 14.8754 21.4938 16.984C21.6483 18.8994 22.7619 20.0201 24.153 20.6805Z" fill="#374253"/>
</svg>
