<?xml version="1.0" encoding="utf-8"?>
<!-- Generator: Adobe Illustrator 27.5.0, SVG Export Plug-In . SVG Version: 6.00 Build 0)  -->
<svg version="1.1" xmlns="http://www.w3.org/2000/svg" xmlns:xlink="http://www.w3.org/1999/xlink" x="0px" y="0px"
	 viewBox="0 0 2500 2000" style="enable-background:new 0 0 2500 2000;" xml:space="preserve">
<g id="BG">
	<rect style="fill:#94F3F7;" width="2500" height="2000"/>
</g>
<g id="illustration">
	<g id="Layer_3">
		<path style="fill:#5AD2D6;" d="M892.195,1602.526H448.972c0,0-131.649-7.326-128.695,32.522
			c3.475,46.887,513.473,15.974,550.758,45.46c37.285,29.486,56.794,64.151,123.285,81.003
			c66.491,16.851,192.503-26.042,545.688,20.897C1753.736,1738.532,1061.219,1602.526,892.195,1602.526z"/>
	</g>
	<g>
		<path style="fill:#027273;" d="M363.937,380.293c-0.591-80.07,151.323-91.825,149.537-49.699l272.713,0.949
			c31.557,0.444,57.035,29.007,56.928,63.778l-3.594,1161.374c-0.106,34.026-25.461,61.602-56.654,61.613l-288.879,1.449
			c-2.773,5.674-7.99,10.815-16.222,15.075c-80.836-0.644-117.575-32.483-117.89-73.473
			C356.859,1553.801,360.682,395.35,363.937,380.293z"/>
		<path style="fill:#013F40;" d="M395.1,856.853L395.1,856.853c6.697,0.153,12.222-5.139,12.278-11.762l2.591-303.224
			c0.057-6.72-5.417-12.347-12.166-12.502h0c-6.749-0.155-12.314,5.218-12.367,11.938l-2.415,303.232
			C382.968,851.159,388.403,856.701,395.1,856.853z"/>
		<g>
			<path style="fill:#03C0C2;" d="M482.585,1635.048l355.439-0.402c32.298,0.056,58.571-28.244,58.698-63.228l4.32-1194.467
				c0.129-35.772-26.251-65.092-58.938-65.467l-356.472-4.631c-32.952-0.378-59.728,28.469-59.791,64.411l-2.108,1200.06
				C423.671,1606.471,450.026,1634.992,482.585,1635.048z"/>
			<path style="fill:#0D0D0D;" d="M475.399,1626.571c2.151,0.296,4.353,0.447,6.543,0.448l355.351-0.963
				c27.759,0.017,50.574-24.802,50.682-55.343l4.22-1193.158c0.11-31.225-22.796-56.931-50.883-57.283l-356.367-5.206
				c-0.819-0.01-1.646,0-2.461,0.031c-13.177,0.503-25.461,6.402-34.61,16.592c-9.346,10.41-14.497,24.258-14.524,39.01
				l-2.191,1201.274C431.108,1599.624,450.062,1623.081,475.399,1626.571z"/>
			<polygon style="fill:#FFFFFF;" points="451.723,377.065 449.342,1573.924 870.718,1573.894 874.752,380.535 			"/>
			<g>
				<defs>
					<polygon id="SVGID_1_" points="451.353,377.065 448.972,1573.924 870.348,1573.894 874.381,380.535 					"/>
				</defs>
				<clipPath id="SVGID_00000183249682560180839670000008428670718442887307_">
					<use xlink:href="#SVGID_1_"  style="overflow:visible;"/>
				</clipPath>
				<g style="clip-path:url(#SVGID_00000183249682560180839670000008428670718442887307_);">
					<g>
						<rect x="375.777" y="491.067" style="fill:#E6E6E6;" width="514.002" height="1123.282"/>
						<polygon style="fill:#04F2F5;" points="952.445,1473.577 118.764,1220.689 151.785,1193.231 935.087,1396.924 						"/>
						
							<rect x="573.847" y="874.293" transform="matrix(0.2783 -0.9605 0.9605 0.2783 -893.4472 1547.1929)" style="fill:#FFFFFF;" width="17.876" height="987.614"/>
						<g>
							<path style="fill:#FFD84F;" d="M565.342,936.249c-7.319-0.738-14.802-1.133-22.416-1.133c-7.614,0-15.124,0.395-22.452,1.133
								c-69.188,6.929-128.596,46.724-137.495,98.966c-9.789,57.468,44.002,109.594,125.378,119.562
								c8.758,1.079,17.801,1.657,27.022,1.657c9.22,0,18.303-0.579,27.184-1.657c82.056-9.969,139.4-62.094,133.528-119.562
								C690.753,982.973,634.058,943.179,565.342,936.249z M563.054,1116.147c-8.474,1.449-17.336,2.211-26.377,2.211
								c-9.041,0-17.803-0.762-26.178-2.211c-51.924-8.874-86.644-42.787-81.669-80.932c4.665-35.77,43.133-64.027,90.09-70.939
								c7.457-1.111,15.172-1.693,23.07-1.693c7.898,0,15.615,0.582,22.996,1.693c46.487,6.939,83.027,35.169,85.254,70.939
								C652.615,1073.36,615.581,1107.238,563.054,1116.147z"/>
							<path style="fill:#FFD84F;" d="M567.108,797.35l-2.123,166.927c-7.381-1.111-15.098-1.693-22.996-1.693
								c-7.898,0-15.613,0.582-23.07,1.693l9.255-166.927H567.108z"/>
							<path style="fill:#FFD84F;" d="M986.648,1052.673H661.501c1.42-5.668,1.945-11.537,1.51-17.473
								c-0.431-5.875-1.784-11.536-3.952-16.927h315.558L986.648,1052.673z"/>
							<path style="fill:#FFD84F;" d="M535.731,1146.101c9.244,0,18.308-0.883,26.975-2.562l-4.87,430.686h-70.089l21.233-430.686
								C517.532,1145.218,526.486,1146.101,535.731,1146.101z"/>
						</g>
						<g>
							<polygon style="fill:#FFFFFF;" points="352.485,907.431 271.744,907.431 283.692,867.683 368.249,867.683 							"/>
							<polygon style="fill:#FFFFFF;" points="451.488,907.431 370.748,907.431 387.375,867.683 471.932,867.683 							"/>
							<polygon style="fill:#FFFFFF;" points="508.858,867.683 487.716,867.683 466.56,907.431 506.029,907.431 							"/>
							<polygon style="fill:#FFFFFF;" points="335.848,952.751 259.459,952.751 270.186,917.262 349.982,917.262 							"/>
							<path style="fill:#FFFFFF;" d="M429.868,951.43c0.141-0.066,0.287-0.127,0.428-0.193l17.531-33.975h-79.796l-14.905,35.489
								h74.06C428.082,952.311,428.958,951.857,429.868,951.43z"/>
							<path style="fill:#FFFFFF;" d="M479.437,935.645c8.174-1.397,16.452-1.599,24.704-1.667l1.133-15.927h-44.366l-13.999,26.302
								C457.28,940.578,468.185,937.568,479.437,935.645z"/>
							<polygon style="fill:#FFFFFF;" points="320.437,991.447 247.763,991.447 257.451,959.396 333.201,959.396 							"/>
							<path style="fill:#FFFFFF;" d="M415.004,959.396h-64.668l-13.461,32.051h43.441
								C388.123,979.196,400.255,968.329,415.004,959.396z"/>
						</g>
						<path style="fill:#03E484;" d="M630.08,1035.215c1.616,36.131-39.905,67.133-92.833,67.133s-92.336-31.001-88.257-67.133
							c3.837-33.993,45.203-60.109,92.594-60.109C588.974,975.107,628.56,1001.222,630.08,1035.215z"/>
						<path style="fill:#04F2F5;" d="M542.87,980.024c0,0,78.524,9.217,68.632,49.591c-10.644,43.441-54.242,43.441-47.544,15.44
							c6.389-26.71-16.887-32.52-29.194-44.734C522.722,988.369,522.39,980.511,542.87,980.024z"/>
						<path style="fill:#03E484;" d="M580.612,856.055l0.136,68.914c0,0,107.255,20.84,123.987,84.829c94.553,0,228.503,0,228.503,0
							l-58.488-152.507L580.612,856.055z"/>
						<g>
							<polygon style="fill:#FFFFFF;" points="828.818,1131.335 728.404,1131.335 715.492,1070.78 806.469,1070.78 							"/>
							<polygon style="fill:#FFFFFF;" points="953.571,1131.335 853.158,1131.335 828.522,1070.78 919.499,1070.78 							"/>
							<polygon style="fill:#FFFFFF;" points="863.352,1224.908 748.357,1224.908 731.65,1146.559 834.436,1146.559 							"/>
							<polygon style="fill:#FFFFFF;" points="1006.221,1224.908 891.226,1224.908 859.351,1146.559 962.137,1146.559 							"/>
							<polygon style="fill:#FFFFFF;" points="905.25,1354.563 871.296,1246.434 752.947,1246.434 763.767,1319.877 							"/>
							<path style="fill:#FFFFFF;" d="M659.597,1146.559c-14.866,14.455-32.994,27.729-54.353,35.483l1.521,42.867h114.352
								l-13.814-78.35H659.597z"/>
							<path style="fill:#FFFFFF;" d="M971.071,1310.087c31.688,7.618,63.74,15.343,96.146,23.227l-48.884-86.88H899.984
								l21.004,51.628C937.59,1302.048,954.285,1306.052,971.071,1310.087z"/>
						</g>
						<path style="fill:#FFFFFF;" d="M242.454,1068.376c13.96,1.223,28.087,2.16,42.297,2.961c0.561-4.51,1.139-8.987,1.547-13.422
							c1.053-11.431,1.638-22.662,1.299-33.517c-0.04-1.281-0.125-2.553-0.191-3.825h-48.248l-14.49,46.084
							C230.576,1067.262,236.496,1067.854,242.454,1068.376z"/>
						<path style="fill:#FFFFFF;" d="M230.099,1083.603c-3.483-0.342-6.953-0.707-10.423-1.068l-12.768,40.606l66.64,15.681
							c3.274-17.696,6.45-34.905,9.003-51.612C264.93,1086.273,247.339,1085.294,230.099,1083.603z"/>
						<path style="fill:#FFFFFF;" d="M306.496,1072.47c19.93,0.949,39.942,1.731,59.88,2.669
							c-7.918-31.025,1.711-54.565,1.711-54.565h-59.271c0.035,0.883,0.07,1.768,0.101,2.649
							C309.464,1039.091,308.392,1055.516,306.496,1072.47z"/>
						<path style="fill:#FFFFFF;" d="M372.168,1091.725c-22.601-1.095-45.152-2.217-67.646-3.382
							c-2.467,17.988-5.613,36.566-8.741,55.711l119.687,28.163c0,0,4.001-7.547,3.257-25.659
							C394.15,1128.553,380.017,1109.404,372.168,1091.725z"/>
						<path style="fill:#03E484;" d="M136.088,1264.7c6.15,0.128,335.504,98.966,335.504,98.966l-9.318,128.533H63.042
							L136.088,1264.7z"/>
						<rect x="378.968" y="493.117" style="fill:#94F3F7;" width="509.848" height="367.788"/>
					</g>
					<polygon style="fill:#FFFFFF;" points="611.33,1245.028 722.299,1248.679 728.168,1318.051 610.633,1284.433 					"/>
					<polygon style="fill:#FFFFFF;" points="290.025,1158.778 410.514,1187.521 395.909,1242.289 275.42,1205.777 					"/>
					<polygon style="fill:#FFFFFF;" points="269.03,1151.922 250.775,1201.213 211.522,1187.521 227.955,1141.047 					"/>
					<polygon style="fill:#FFFFFF;" points="436.072,1158.778 418.729,1246.853 486.276,1263.283 495.404,1175.655 					"/>
				</g>
			</g>
		</g>
		<g>
			<g>
				<polygon style="fill:#F13005;" points="747.561,566.501 699.989,566.113 547.096,377.847 594.881,378.239 				"/>
				<polygon style="fill:#F1E3E0;" points="699.989,566.113 652.449,565.724 499.31,377.455 547.096,377.847 				"/>
				<polygon style="fill:#F13005;" points="652.449,565.724 604.875,565.336 451.557,377.063 499.31,377.455 				"/>
				<polygon style="fill:#F1E3E0;" points="795.098,566.89 747.561,566.501 594.881,378.239 642.63,378.631 				"/>
				<polygon style="fill:#F1E3E0;" points="890.204,567.667 842.668,567.278 690.414,379.023 738.162,379.415 				"/>
				<polygon style="fill:#F13005;" points="1028.195,568.794 985.306,568.443 833.69,380.199 876.736,380.552 				"/>
				<polygon style="fill:#F1E3E0;" points="985.306,568.443 937.773,568.055 785.944,379.807 833.69,380.199 				"/>
				<polygon style="fill:#F13005;" points="842.668,567.278 795.098,566.89 642.63,378.631 690.414,379.023 				"/>
				<polygon style="fill:#F13005;" points="937.773,568.055 890.204,567.667 738.162,379.415 785.944,379.807 				"/>
			</g>
			<path style="fill:#D62B04;" d="M652.449,565.724l0.017,28.659c0.018,30.368-47.49,29.981-47.542-0.388l-0.049-28.66
				L652.449,565.724z"/>
			<path style="fill:#F1C5BC;" d="M699.989,566.113l-0.015,28.659c-0.016,30.368-47.489,29.98-47.507-0.388l-0.017-28.659
				L699.989,566.113z"/>
			<path style="fill:#D62B04;" d="M747.561,566.501l-0.047,28.658c-0.05,30.367-47.556,29.979-47.54-0.388l0.015-28.659
				L747.561,566.501z"/>
			<path style="fill:#F1C5BC;" d="M795.098,566.89l-0.079,28.658c-0.084,30.367-47.555,29.979-47.505-0.388l0.047-28.658
				L795.098,566.89z"/>
			<path style="fill:#D62B04;" d="M842.668,567.278l-0.112,28.657c-0.118,30.366-47.622,29.978-47.538-0.388l0.079-28.658
				L842.668,567.278z"/>
			<path style="fill:#F1C5BC;" d="M890.204,567.667l-0.144,28.657c-0.152,30.365-47.622,29.978-47.504-0.388l0.112-28.657
				L890.204,567.667z"/>
			<path style="fill:#D62B04;" d="M937.773,568.055l-0.176,28.656c-0.186,30.365-47.689,29.977-47.537-0.388l0.144-28.657
				L937.773,568.055z"/>
			<path style="fill:#F1C5BC;" d="M985.306,568.443l-0.208,28.656c-0.22,30.364-47.688,29.977-47.502-0.388l0.176-28.656
				L985.306,568.443z"/>
			<path style="fill:#D62B04;" d="M1028.195,568.794l-0.237,28.655c-0.251,30.364-43.08,30.014-42.86-0.35l0.208-28.656
				L1028.195,568.794z"/>
			<polygon style="fill:#F13005;" points="604.875,565.336 608.601,565.852 451.351,564.458 451.557,377.063 			"/>
		</g>
		<path style="fill:#808080;" d="M589.602,1326.209c-22.217-22.14,12.81-75.28,64.477-125.382
			c20.853-20.221,44.418-39.939,68.023-56.933c0.812-0.413,1.5-0.901,2.017-1.447c0.354-0.252,0.707-0.51,1.061-0.761
			c0-0.253-0.045-0.516-0.121-0.783c0.11-0.373,0.148-0.759,0.102-1.155l-14.122-73.984l109.68-1.051
			c1.624,0,3.14-0.808,4.046-2.154c0.906-1.348,1.083-3.057,0.471-4.561l-19.843-48.754c-0.748-1.837-2.533-3.039-4.517-3.039
			h-99.979c-2.403-5.84-8.462-18.436-20.495-32.015c-14.824-16.729-41.958-38.204-87.041-45.509
			c-10.019-0.405-9.557,8.632-1.56,9.628c33.726,5.465,60.973,19.593,80.984,41.993c14.959,16.746,20.051,32.121,20.098,32.266
			c0.646,2.02,2.524,3.392,4.645,3.392h100.068l15.873,39.001H703.877c-6.973,0.187-9.036,4.917-8.866,10.958l7.581,67.763
			c-69.517,38.873-147.455,90.122-183.037,121.574c-48.149,42.561-47.605,117.117,11.004,171.921
			c133.54,124.872,349.835,208.888,576.101,264.888c453.908,112.34,755.261,132.58,785.362,135.319
			c102.638,8.425,235.915-7.149,223.66-123.064c-12.255-115.915,181.882-108.116,202.806-113.298
			C2088.164,1581.811,782.676,1518.615,589.602,1326.209z"/>
		<path style="fill:#636363;" d="M2318.487,1591.021c-65.533-1.59-192.827,3.878-207.35,90.962
			c-1.558,10.239-0.371,20.557,0.362,30.768c1.389,23.07-4.567,46.842-19.92,64.425c-47.679,49.726-125.034,48.691-189.271,46.389
			c-193.235-14.893-385.083-46.133-574.859-85.092c-211.138-44.795-425.667-91.904-618.673-191.773
			c-69.19-36.897-137.83-79.292-191.813-136.797c-38.437-43.467-43.22-114.487,2.592-154.648
			c-26.812,22.199-40.225,58.422-34.891,92.785c11.709,77.772,102.124,128.087,162.176,169.083
			c137.041,83.312,290.897,134.702,445.418,174.681c265.939,66.091,536.062,118.505,809.455,140.87
			c73.924,3.507,184.697,1.849,214.585-80.649c8.411-22.41,2.416-45.796,4.388-68.727c11.88-77.837,140.585-85.498,197.801-86.084
			V1591.021z"/>
		<path style="fill:none;stroke:#808080;stroke-width:10;stroke-miterlimit:10;" d="M591.799,938.31"/>
		<g>
			<path style="fill:#FFFFFF;" d="M716.964,1483.62c56.806,25.227,122.956,47.987,194.837,68.523
				c3.877-5.905,10.651-17.078,12.672-19.701c-69.699-17.442-133.919-36.986-189.35-58.865
				C729.081,1476.945,723.028,1480.292,716.964,1483.62z"/>
			<path style="fill:#FFFFFF;" d="M541.064,1330.388c-1.329,0.191-7.128,2.014-9.583,2.924c3.05,13.725,11.387,29.159,21.656,41.687
				c1.575,1.847,3.197,3.684,4.865,5.513c3.474-2.421,6.944-4.848,10.42-7.267C557.549,1361.373,546.789,1346.295,541.064,1330.388z
				"/>
			<path style="fill:#FFFFFF;" d="M624.972,1201.4c8.416-6.534,17.225-13.171,26.613-20.421c-1.082-0.364-2.169-0.715-3.262-1.046
				c-9.223,6.107-18.892,12.6-28.553,19.378C621.499,1200.018,623.234,1200.713,624.972,1201.4z"/>
			<path style="fill:#FFFFFF;" d="M608.347,1211.972c-11.827,8.449-23.509,17.304-34.205,26.396c2.341,1.487,4.811,2.81,7.275,4.06
				c10.449-10.287,21.12-19.245,32.46-28.193C612.027,1213.494,610.185,1212.739,608.347,1211.972z"/>
			<path style="fill:#FFFFFF;" d="M568.422,1257.714c-2.802-1.544-5.578-3.213-8.162-5.093
				c-21.919,20.922-32.822,39.729-30.816,63.272c2.852,0,8.76-0.337,11.678-0.799
				C540.637,1289.611,556.832,1270.435,568.422,1257.714z"/>
			<path style="fill:#FFFFFF;" d="M587.542,1408.184c21.125,17.22,46.43,33.55,75.235,49.035c5.217-2.784,10.424-5.585,15.624-8.4
				c-31.016-15.064-57.946-31.117-79.951-48.218C594.814,1403.128,591.176,1405.654,587.542,1408.184z"/>
			<path style="fill:#FFFFFF;" d="M1029.192,1556.327c-8.016,6.841-16.034,13.681-24.049,20.523
				c88.66,21.817,183.017,40.767,277.375,57.221c8.867-5.778,30.119-23.822,36.636-28.561
				C1220.802,1591.907,1121.985,1575.665,1029.192,1556.327z"/>
			<path style="fill:#FFFFFF;" d="M1948.745,1668.094c-92.224-6.413-299.366-24.151-424.484-37.562
				c-15.604,11.478-31.215,22.945-46.837,34.397c117.688,16.952,319.662,38.62,411.922,49.098
				C1908.997,1698.528,1928.844,1683.265,1948.745,1668.094z"/>
		</g>
		<ellipse style="fill:#222222;" cx="593.875" cy="930.742" rx="35.915" ry="11.502"/>
		<path style="fill:#FFFFFF;" d="M606.792,929.746c0,2.514-6.363,4.552-14.213,4.552s-14.213-2.038-14.213-4.552
			c0-2.514,6.363-4.552,14.213-4.552S606.792,927.232,606.792,929.746z"/>
		<g>
			<path style="fill:#FF3305;" d="M592.569,722.623c-40.907,0-74.09,33.182-74.09,74.09c0,40.928,74.09,115.758,74.09,115.758
				s74.111-74.829,74.111-115.758C666.68,755.806,633.497,722.623,592.569,722.623z M592.569,838.359
				c-23.086,0-41.799-18.712-41.799-41.799c0-23.086,18.713-41.799,41.799-41.799s41.821,18.713,41.821,41.799
				C634.389,819.647,615.655,838.359,592.569,838.359z"/>
		</g>
		<g>
			<path style="fill:#FFFFFF;" d="M1152.752,633.096c0.051-0.658,0.085-1.32,0.085-1.99c0-14.028-11.372-25.4-25.4-25.4
				s-25.4,11.372-25.4,25.4c0,0.67,0.034,1.333,0.085,1.99H1152.752z"/>
			<path style="fill:#FFFFFF;" d="M1236.197,633.096c0.051-0.658,0.085-1.32,0.085-1.99c0-14.028-11.372-25.4-25.4-25.4
				s-25.4,11.372-25.4,25.4c0,0.67,0.034,1.333,0.085,1.99H1236.197z"/>
			<path style="fill:#FFFFFF;" d="M1257.807,633.096c0.072-0.654,0.112-1.317,0.112-1.99c0-9.919-8.041-17.961-17.961-17.961
				c-9.919,0-17.961,8.041-17.961,17.961c0,0.673,0.04,1.336,0.112,1.99H1257.807z"/>
			<path style="fill:#FFFFFF;" d="M1206.98,633.096c0.197-1.551,0.298-3.131,0.298-4.735c0-20.55-16.659-37.21-37.21-37.21
				c-20.55,0-37.21,16.659-37.21,37.21c0,1.604,0.102,3.184,0.299,4.735H1206.98z"/>
		</g>
		<g>
			<path style="fill:#FFFFFF;" d="M1433.014,540.18c0.083-1.072,0.139-2.152,0.139-3.246c0-22.882-18.55-41.432-41.432-41.432
				s-41.432,18.549-41.432,41.432c0,1.094,0.055,2.174,0.139,3.246H1433.014z"/>
			<path style="fill:#FFFFFF;" d="M1569.125,540.18c0.083-1.072,0.139-2.152,0.139-3.246c0-22.882-18.55-41.432-41.432-41.432
				s-41.432,18.549-41.432,41.432c0,1.094,0.055,2.174,0.139,3.246H1569.125z"/>
			<path style="fill:#FFFFFF;" d="M1604.375,540.18c0.118-1.066,0.183-2.148,0.183-3.246c0-16.18-13.116-29.297-29.297-29.297
				c-16.18,0-29.297,13.117-29.297,29.297c0,1.098,0.065,2.18,0.183,3.246H1604.375z"/>
			<path style="fill:#FFFFFF;" d="M1521.468,540.18c0.321-2.529,0.487-5.107,0.487-7.723c0-33.521-27.174-60.695-60.695-60.695
				c-33.521,0-60.695,27.174-60.695,60.695c0,2.616,0.166,5.194,0.487,7.723H1521.468z"/>
		</g>
		<g>
			<path style="fill:#FFFFFF;" d="M263.896,1376.006c-0.05-0.644-0.083-1.293-0.083-1.951c0-13.75,11.147-24.896,24.897-24.896
				s24.897,11.146,24.897,24.896c0,0.657-0.033,1.306-0.083,1.951H263.896z"/>
			<path style="fill:#FFFFFF;" d="M182.105,1376.006c-0.05-0.644-0.083-1.293-0.083-1.951c0-13.75,11.146-24.896,24.897-24.896
				c13.75,0,24.896,11.146,24.896,24.896c0,0.657-0.033,1.306-0.083,1.951H182.105z"/>
			<path style="fill:#FFFFFF;" d="M210.743,1376.006c-0.193-1.52-0.293-3.069-0.293-4.641c0-20.143,16.329-36.472,36.472-36.472
				c20.143,0,36.472,16.329,36.472,36.472c0,1.572-0.1,3.121-0.293,4.641H210.743z"/>
		</g>
		<g>
			<defs>
				<filter id="Adobe_OpacityMaskFilter" filterUnits="userSpaceOnUse" x="970.722" y="808.156" width="634.269" height="131.227">
					<feFlood  style="flood-color:white;flood-opacity:1" result="back"/>
					<feBlend  in="SourceGraphic" in2="back" mode="normal"/>
				</filter>
			</defs>
			
				<mask maskUnits="userSpaceOnUse" x="970.722" y="808.156" width="634.269" height="131.227" id="SVGID_00000040558304844139600110000003859796852856476053_">
				<g style="filter:url(#Adobe_OpacityMaskFilter);">
					<defs>
						
							<filter id="Adobe_OpacityMaskFilter_00000178892086964841634390000004725617477810287491_" filterUnits="userSpaceOnUse" x="970.722" y="808.156" width="634.269" height="131.227">
							<feFlood  style="flood-color:white;flood-opacity:1" result="back"/>
							<feBlend  in="SourceGraphic" in2="back" mode="normal"/>
						</filter>
					</defs>
					
						<mask maskUnits="userSpaceOnUse" x="970.722" y="808.156" width="634.269" height="131.227" id="SVGID_00000040558304844139600110000003859796852856476053_">
						<g style="filter:url(#Adobe_OpacityMaskFilter_00000178892086964841634390000004725617477810287491_);">
						</g>
					</mask>
					
						<linearGradient id="SVGID_00000102508027730019484610000013799264773279276460_" gradientUnits="userSpaceOnUse" x1="1558.9283" y1="910.6119" x2="734.1236" y2="743.2606" gradientTransform="matrix(0.9999 -0.0136 0.0136 0.9999 -15.4365 18.8901)">
						<stop  offset="0" style="stop-color:#FFFFFF"/>
						<stop  offset="1" style="stop-color:#000000"/>
					</linearGradient>
					
						<path style="mask:url(#SVGID_00000040558304844139600110000003859796852856476053_);fill:url(#SVGID_00000102508027730019484610000013799264773279276460_);" d="
						M1604.991,870.963c-199.924-7.896-410.075-31.237-625.673-62.806l-8.596,14.998
						c216.101,63.554,390.224,101.502,552.315,116.229C1533.777,925.032,1581.542,880.617,1604.991,870.963z"/>
				</g>
			</mask>
			
				<linearGradient id="SVGID_00000077311633019470335200000010627025800208264098_" gradientUnits="userSpaceOnUse" x1="1558.9283" y1="910.6119" x2="734.1236" y2="743.2606" gradientTransform="matrix(0.9999 -0.0136 0.0136 0.9999 -15.4365 18.8901)">
				<stop  offset="0" style="stop-color:#FFFFFF"/>
				<stop  offset="1" style="stop-color:#000000"/>
			</linearGradient>
			<path style="opacity:0.5;fill:url(#SVGID_00000077311633019470335200000010627025800208264098_);" d="M1604.991,870.963
				c-199.924-7.896-410.075-31.237-625.673-62.806l-8.596,14.998c216.101,63.554,390.224,101.502,552.315,116.229
				C1533.777,925.032,1581.542,880.617,1604.991,870.963z"/>
			<defs>
				
					<filter id="Adobe_OpacityMaskFilter_00000008122787351683917670000011061103176349322670_" filterUnits="userSpaceOnUse" x="1179.978" y="690.243" width="531.275" height="71.579">
					<feFlood  style="flood-color:white;flood-opacity:1" result="back"/>
					<feBlend  in="SourceGraphic" in2="back" mode="normal"/>
				</filter>
			</defs>
			
				<mask maskUnits="userSpaceOnUse" x="1179.978" y="690.243" width="531.275" height="71.579" id="SVGID_00000139291591253915504880000016715077248865352612_">
				<g style="filter:url(#Adobe_OpacityMaskFilter_00000008122787351683917670000011061103176349322670_);">
					<defs>
						
							<filter id="Adobe_OpacityMaskFilter_00000062900808063148971970000008324247116387704971_" filterUnits="userSpaceOnUse" x="1179.978" y="690.243" width="531.275" height="71.579">
							<feFlood  style="flood-color:white;flood-opacity:1" result="back"/>
							<feBlend  in="SourceGraphic" in2="back" mode="normal"/>
						</filter>
					</defs>
					
						<mask maskUnits="userSpaceOnUse" x="1179.978" y="690.243" width="531.275" height="71.579" id="SVGID_00000139291591253915504880000016715077248865352612_">
						<g style="filter:url(#Adobe_OpacityMaskFilter_00000062900808063148971970000008324247116387704971_);">
						</g>
					</mask>
					
						<linearGradient id="SVGID_00000176035245895563852470000004951532743936322983_" gradientUnits="userSpaceOnUse" x1="1675.6979" y1="758.2711" x2="988.4746" y2="618.8348" gradientTransform="matrix(0.9999 -0.0136 0.0136 0.9999 -15.4365 18.8901)">
						<stop  offset="0" style="stop-color:#FFFFFF"/>
						<stop  offset="1" style="stop-color:#000000"/>
					</linearGradient>
					
						<path style="mask:url(#SVGID_00000139291591253915504880000016715077248865352612_);fill:url(#SVGID_00000176035245895563852470000004951532743936322983_);" d="
						M1711.253,724.348c-199.924-7.896-328.146-11.704-526.042-34.105l-5.233,9.131c220.417,38.539,331.715,47.721,493.807,62.448
						C1676.527,750.482,1693.561,730.659,1711.253,724.348z"/>
				</g>
			</mask>
			
				<linearGradient id="SVGID_00000106145035495171860800000000016356933754352269_" gradientUnits="userSpaceOnUse" x1="1675.6979" y1="758.2711" x2="988.4746" y2="618.8348" gradientTransform="matrix(0.9999 -0.0136 0.0136 0.9999 -15.4365 18.8901)">
				<stop  offset="0" style="stop-color:#FFFFFF"/>
				<stop  offset="1" style="stop-color:#000000"/>
			</linearGradient>
			<path style="opacity:0.5;fill:url(#SVGID_00000106145035495171860800000000016356933754352269_);" d="M1711.253,724.348
				c-199.924-7.896-328.146-11.704-526.042-34.105l-5.233,9.131c220.417,38.539,331.715,47.721,493.807,62.448
				C1676.527,750.482,1693.561,730.659,1711.253,724.348z"/>
			<defs>
				
					<filter id="Adobe_OpacityMaskFilter_00000173150210398961732960000010972056462738794430_" filterUnits="userSpaceOnUse" x="672.245" y="1169.796" width="489.133" height="226.443">
					<feFlood  style="flood-color:white;flood-opacity:1" result="back"/>
					<feBlend  in="SourceGraphic" in2="back" mode="normal"/>
				</filter>
			</defs>
			
				<mask maskUnits="userSpaceOnUse" x="672.245" y="1169.796" width="489.133" height="226.443" id="SVGID_00000001655234348104976290000004900904732207146925_">
				<g style="filter:url(#Adobe_OpacityMaskFilter_00000173150210398961732960000010972056462738794430_);">
					<defs>
						
							<filter id="Adobe_OpacityMaskFilter_00000057840823703297603230000018049676762264409997_" filterUnits="userSpaceOnUse" x="672.245" y="1169.796" width="489.133" height="226.443">
							<feFlood  style="flood-color:white;flood-opacity:1" result="back"/>
							<feBlend  in="SourceGraphic" in2="back" mode="normal"/>
						</filter>
					</defs>
					
						<mask maskUnits="userSpaceOnUse" x="672.245" y="1169.796" width="489.133" height="226.443" id="SVGID_00000001655234348104976290000004900904732207146925_">
						<g style="filter:url(#Adobe_OpacityMaskFilter_00000057840823703297603230000018049676762264409997_);">
						</g>
					</mask>
					
						<linearGradient id="SVGID_00000129169468684160001910000009105074574787172018_" gradientUnits="userSpaceOnUse" x1="1121.3186" y1="1322.7229" x2="463.5641" y2="1189.2657" gradientTransform="matrix(0.9999 -0.0136 0.0136 0.9999 -15.4365 18.8901)">
						<stop  offset="0" style="stop-color:#FFFFFF"/>
						<stop  offset="1" style="stop-color:#000000"/>
					</linearGradient>
					
						<path style="mask:url(#SVGID_00000001655234348104976290000004900904732207146925_);fill:url(#SVGID_00000129169468684160001910000009105074574787172018_);" d="
						M1161.378,1305.39c-179.569-12.637-350.994-43.238-483.9-135.594l-5.233,9.131
						c133.601,118.925,265.351,192.013,445.226,217.313C1120.213,1384.899,1143.339,1331.043,1161.378,1305.39z"/>
				</g>
			</mask>
			
				<linearGradient id="SVGID_00000069380563665260595630000007943357302298241191_" gradientUnits="userSpaceOnUse" x1="1121.3186" y1="1322.7229" x2="463.5641" y2="1189.2657" gradientTransform="matrix(0.9999 -0.0136 0.0136 0.9999 -15.4365 18.8901)">
				<stop  offset="0" style="stop-color:#FFFFFF"/>
				<stop  offset="1" style="stop-color:#000000"/>
			</linearGradient>
			<path style="opacity:0.5;fill:url(#SVGID_00000069380563665260595630000007943357302298241191_);" d="M1161.378,1305.39
				c-179.569-12.637-350.994-43.238-483.9-135.594l-5.233,9.131c133.601,118.925,265.351,192.013,445.226,217.313
				C1120.213,1384.899,1143.339,1331.043,1161.378,1305.39z"/>
			<g>
				<g>
					<path style="opacity:0.6;fill:#222222;" d="M1186.311,1523.347l714.624,72.942c88.872,16.197,16.408,98.08-154.189,86.596
						c0,0-417.19-50.566-634.052-84.056C1034.318,1586.724,1054.456,1506.655,1186.311,1523.347z"/>
					<g>
						<g>
							<g>
								<g>
									<g>
										<g>
											<polygon style="fill:#DE7F04;" points="1328.845,1194.461 1096.954,1173.971 1100.905,932.166 1332.796,952.656 
																							"/>
											<polygon style="fill:#DE7F04;" points="1092.313,923.143 1091.483,973.946 1339.318,995.846 1340.188,942.56 											
												"/>
										</g>
									</g>
									<g>
										<g>
											<polygon style="fill:#FFA305;" points="1211.542,1186.031 1019.433,1168.998 1023.401,927.194 1215.509,944.227 
																							"/>
											<polygon style="fill:#FFA305;" points="1016.325,917.19 1015.473,969.104 1220.79,987.309 1221.641,933.273 											
												"/>
										</g>
									</g>
									
										<rect x="1141.829" y="859.561" transform="matrix(0.0883 -0.9961 0.9961 0.0883 65.5538 2032.2976)" style="fill:#DE7F04;" width="2.357" height="241.552"/>
									<polygon style="fill:#FFFFFF;" points="1061.02,1172.685 1046.635,1171.41 1050.778,919.815 1065.163,921.09 									"/>
								</g>
								<polygon style="fill:#FFFFFF;" points="1181.426,1183.476 1167.041,1182.2 1171.17,929.512 1185.555,930.787 								"/>
							</g>
							<g>
								
									<ellipse transform="matrix(0.3096 -0.9509 0.9509 0.3096 -494.4152 2248.6125)" style="fill:#222222;" cx="1301.303" cy="1464.786" rx="105.023" ry="98.335"/>
								<path style="fill:#222222;" d="M1424.814,1472.517c-5.598,60.325-54.001,106.27-117.374,102.303
									c-63.374-3.967-110.209-56.086-104.611-116.411c5.598-60.326,61.511-106.014,124.885-102.047
									C1391.086,1360.329,1430.412,1412.191,1424.814,1472.517z"/>
								
									<ellipse transform="matrix(0.3096 -0.9509 0.9509 0.3096 -494.4144 2248.6143)" style="fill:#CCCCCC;" cx="1301.303" cy="1464.786" rx="74.263" ry="69.534"/>
								
									<ellipse transform="matrix(0.3096 -0.9509 0.9509 0.3096 -495.9389 2245.7454)" style="fill:#737373;" cx="1298.563" cy="1464.401" rx="34.622" ry="32.417"/>
							</g>
							<path style="fill:#E82728;" d="M1582.716,1445.792c-17.817,1.601-212.998-1.084,0.169-218.43
								c-241.689-21.952-358.122-67.802-456.435,213.597l436.911,36.122C1584.231,1478.387,1588.505,1453.381,1582.716,1445.792z"/>
							<path style="fill:#222222;" d="M1617.915,1229.441l-238.406-19.483c-25.717-2.126-21.075-56.955,4.642-54.83l238.406,19.483
								C1653.313,1177.154,1648.672,1231.983,1617.915,1229.441z"/>
							<path style="fill:#222222;" d="M1332.363,1214.129l-204.452-16.14c-5.721-0.452-9.96-5.445-9.469-11.153v0
								c0.491-5.708,5.527-9.969,11.248-9.518l204.452,16.14c5.721,0.452,9.96,5.445,9.469,11.153l0,0
								C1343.12,1210.319,1338.084,1214.581,1332.363,1214.129z"/>
							
								<rect x="1179.537" y="1176.528" transform="matrix(0.7919 -0.6106 0.6106 0.7919 -509.1806 981.238)" style="fill:#222222;" width="11.165" height="122.361"/>
							<path style="fill:#B81F20;" d="M1539.955,1225.648c0,0-204.145,213.624,0.115,223.832
								c40.502,1.084,42.646-3.689,42.646-3.689c-58.559-10.044-113.968-32.245-66.547-107.988
								c39.243-62.679,105.44-108.862,105.44-108.862L1539.955,1225.648z"/>
							<g>
								<g>
									<path style="fill:#B81F20;" d="M1426.191,1465.418c3.217-6.765,6.045-13.722,8.412-20.847
										c26.073-78.486-13.699-138.138-85.322-153.067c-161.454-33.653-208.234,143.307-209.563,150.229L1426.191,1465.418z"/>
									<path style="fill:#E82728;" d="M1388.677,1462.313c3.217-6.766,6.045-13.722,8.412-20.847
										c26.073-78.486-12.126-147.016-85.322-153.067c-73.195-6.051-153.668,52.669-179.742,131.155
										c-2.367,7.125-4.189,14.165-5.518,21.087L1388.677,1462.313z"/>
								</g>
								<g>
									<path style="fill:#222222;" d="M1330.667,1361.476l-94.826-5.792c-1.852-0.113-3.231-1.701-3.064-3.529l0.03-0.324
										c0.167-1.828,1.819-3.231,3.671-3.118l94.826,5.792c1.852,0.113,3.231,1.701,3.064,3.529l-0.03,0.324
										C1334.171,1360.186,1332.519,1361.589,1330.667,1361.476z"/>
									<path style="fill:#222222;" d="M1329.221,1377.321l-94.826-5.792c-1.852-0.113-3.231-1.701-3.064-3.529l0.03-0.324
										c0.167-1.828,1.819-3.231,3.671-3.118l94.826,5.792c1.852,0.113,3.231,1.701,3.064,3.529l-0.03,0.324
										C1332.725,1376.031,1331.073,1377.434,1329.221,1377.321z"/>
									<path style="fill:#222222;" d="M1327.775,1393.165l-94.826-5.792c-1.852-0.113-3.231-1.701-3.064-3.529l0.03-0.324
										c0.167-1.828,1.819-3.231,3.671-3.118l94.826,5.792c1.852,0.113,3.231,1.701,3.064,3.529l-0.03,0.324
										C1331.279,1391.875,1329.627,1393.278,1327.775,1393.165z"/>
									<path style="fill:#222222;" d="M1326.329,1409.009l-94.826-5.792c-1.852-0.113-3.231-1.701-3.064-3.529l0.03-0.324
										c0.167-1.828,1.819-3.231,3.671-3.118l94.826,5.792c1.852,0.113,3.231,1.701,3.064,3.529l-0.03,0.325
										C1329.833,1407.719,1328.181,1409.122,1326.329,1409.009z"/>
								</g>
							</g>
							<g>
								<path style="fill:#32613F;" d="M1674.397,913.091c0,0-28.574,101.193-17.113,140.207
									c23.479,39.255,201.057,35.503,201.057,35.503l13.018-28.77l-117.208-35.445l11.831-71.038
									C1777.8,889.613,1705.538,867.656,1674.397,913.091z"/>
								<g>
									<path style="fill:#024545;" d="M1556.485,1443.815l72.349,6.12c19.092-25.393,148.757-199.684,152.151-240.128
										c2.844-33.897-10.354-66.958-94.965-102.522c-56.726-23.845-122.141-12.045-122.141-12.045s-47.833,50.31-8.082,80.144
										c39.751,29.833,115.275,47.427,115.275,47.427L1556.485,1443.815z"/>
									<path style="fill:#222222;" d="M1556.187,1444.363l146.456,11.36c0,0,44.451-17.98,13.591-56.46
										c-24.14-22.626-72.742-11.26-90.906,13.681l-50.31-3.166L1556.187,1444.363z"/>
								</g>
								<g>
									<path style="fill:#027273;" d="M1475.872,1438.769l72.349,6.12c19.092-25.394,148.757-199.684,152.151-240.128
										c2.844-33.896-10.354-66.958-94.965-102.522c-56.726-23.845-96.957-17.817-116.76-13.211s-53.213,51.475-13.462,81.31
										c39.751,29.833,115.275,47.427,115.275,47.427L1475.872,1438.769z"/>
									<path style="fill:#222222;" d="M1475.573,1439.318l146.456,11.359c0,0,44.451-17.98,13.591-56.46
										c-24.14-22.626-72.742-11.26-90.906,13.681l-50.31-3.166C1469.778,1416.7,1474.745,1427.96,1475.573,1439.318z"/>
								</g>
								<path style="fill:#56A66B;" d="M1672.562,1107.732c35.965-14.861,59.837-91.952,83.094-139.572
									c41.586-85.023-89.909-145.736-160.227-70.762c-64.83,65.385-133.17,127.95-124.661,203.316
									C1531.993,1130.473,1645.15,1121.728,1672.562,1107.732z"/>
								<path style="fill:#386B45;" d="M1646.308,1116.48l-1.151-2.057c12.301-6.88,16.975-21.83,22.386-39.139
									c5.046-16.138,10.765-34.427,24.119-48.798c34.555-48.967,44.532-84.082,46.817-104.921
									c2.469-22.521-3.276-33.634-3.334-33.744l2.077-1.113c0.25,0.466,6.108,11.687,3.63,34.828
									c-2.267,21.166-12.315,56.801-47.311,106.374l-0.101,0.123c-13.028,13.988-18.67,32.033-23.648,47.954
									C1664.23,1093.778,1659.427,1109.141,1646.308,1116.48z"/>
								<path style="fill:#417D51;" d="M1596.895,905.212c0,0-98.384,95.229-68.052,148.173
									c24.403,42.595,175.866,51.617,186.056,40.097l13.018-28.769c-11.002-26.038-67.168-36.479-111.652-46.675l50.669-46.307
									C1711.043,928.93,1652.256,856.251,1596.895,905.212z"/>
								<path style="fill:#417D51;" d="M1742.139,914.63c0,0,8.347,5.05,7.195,17.457c17.23-13.812,0.031-59.257-43.779-75.147
									C1664.004,841.87,1742.139,914.63,1742.139,914.63z"/>
								<g>
									<path style="fill:#FFA794;" d="M1693.218,865.894c-12.721,13.614,48.921,48.736,48.921,48.736l43.315-58.494
										l-50.333-32.986L1693.218,865.894z"/>
									<path style="fill:#FFA794;" d="M1718.888,805.794c0,0,13.494,88.713,86.478,81.207c32.669-3.36,47.009-51.824,46.794-80.15
										c-0.473-62.295-54.516-92.982-87.158-79.177C1710.878,750.564,1718.644,797.409,1718.888,805.794z"/>
									<path style="fill:#222222;" d="M1729.357,839.5c0,0,14.093,40.158,49.727,47.602c14.371,2.012,18.099,0.349,18.099,0.349
										c-5.946-0.194-45.394-12.272-51.637-56.237C1743.326,822.738,1726.506,829.121,1729.357,839.5z"/>
									<g>
										<defs>
											<path id="XMLID_4_" d="M1750.68,835.914c7.973-13.489,12.078-31.618,16.721-50.601
												c23.803,3.158,55.26,6.521,89.081,6.131c9.604,0.046,14.666-69.28-62.807-80.021
												c-31.269-4.335-70.258,6.244-86.774,36.962c-17.79,33.087-13.321,70.533,2.498,87.271
												C1719.486,846.329,1739.845,848.606,1750.68,835.914z"/>
										</defs>
										<use xlink:href="#XMLID_4_"  style="overflow:visible;fill:#E82728;"/>
										<clipPath id="XMLID_00000177485140095380136270000009472021355086275474_">
											<use xlink:href="#XMLID_4_"  style="overflow:visible;"/>
										</clipPath>
										<path style="clip-path:url(#XMLID_00000177485140095380136270000009472021355086275474_);fill:#FFFFFF;" d="
											M1834.825,790.673l-4.336,0.88c7.362-28.013-10.099-49.577-21.547-58.834c-19.643-15.887-47.581-23.578-61.013-16.793
											l-1.722-3.411c14.872-7.513,44.098,0.217,65.138,17.233C1823.51,739.586,1842.735,760.582,1834.825,790.673z"/>
										<path style="clip-path:url(#XMLID_00000177485140095380136270000009472021355086275474_);fill:#FFFFFF;" d="
											M1842.568,793.293l-3.666-1.078c5.897-20.05,0.911-39.913-14.04-55.928c-17.067-18.282-43.369-27.289-65.435-22.416
											l-0.825-3.731c23.35-5.158,51.095,4.304,69.053,23.539C1843.566,750.722,1848.863,771.893,1842.568,793.293z"/>
									</g>
									<path style="fill:#B3523D;" d="M1816.803,833.266c-3.371,0.046-6.067-0.481-6.286-0.525
										c-0.689-0.138-1.136-0.81-0.997-1.499c0.138-0.688,0.803-1.139,1.499-0.998c0.098,0.019,9.757,1.896,14.669-1.97
										c0.409-0.322,0.615-0.751,0.648-1.352c0.241-4.384-7.978-13.472-11.166-16.603c-0.502-0.493-0.508-1.3-0.015-1.801
										c0.493-0.503,1.301-0.508,1.801-0.016c1.257,1.236,12.27,12.248,11.923,18.56c-0.073,1.328-0.632,2.439-1.616,3.214
										C1824.325,832.588,1820.216,833.22,1816.803,833.266z"/>
									<path style="fill:#222222;" d="M1786.749,804.946c-0.323,3.487-2.688,6.181-5.282,6.019
										c-2.594-0.162-4.434-3.12-4.111-6.607c0.324-3.487,2.689-6.181,5.282-6.019
										C1785.232,798.502,1787.073,801.46,1786.749,804.946z"/>
									<path style="fill:#222222;" d="M1842.228,809.269c-0.276,2.979-2.297,5.282-4.514,5.143
										c-2.216-0.139-3.789-2.666-3.512-5.646c0.276-2.979,2.297-5.282,4.514-5.143
										C1840.932,803.762,1842.504,806.29,1842.228,809.269z"/>
									<path style="fill:#B33A20;" d="M1781.222,838.303c0,0,14.218,17.417,46.491,15.235c0,0-18.294,24.906-39.997,14.584
										C1766.014,857.8,1781.222,838.303,1781.222,838.303z"/>
									<path style="fill:#222222;" d="M1767.4,785.313c35.762,3.707,70.207,6.978,90.872,5.688c0,0,23.71,7.272,17.442,12.124
										C1869.446,807.976,1767.4,785.313,1767.4,785.313z"/>
								</g>
								<path style="fill:#417D51;" d="M1705.555,856.941c0,0-13.293-6.198-19.676,7.077c1.724,33.271,27.039,64.765,40.085,67.893
									c2.112-5.379,6.643-12.013,16.175-17.28C1742.139,914.63,1705.639,884.368,1705.555,856.941z"/>
							</g>
							<g>
								<g>
									
										<ellipse transform="matrix(0.3096 -0.9509 0.9509 0.3096 -158.7293 2820.906)" style="fill:#222222;" cx="1863.252" cy="1519.762" rx="98.605" ry="92.325"/>
									<path style="fill:#222222;" d="M1979.214,1527.02c-5.256,56.639-50.7,99.775-110.201,96.051
										s-103.474-52.658-98.218-109.297c5.256-56.639,57.752-99.535,117.252-95.81
										C1947.548,1421.688,1984.471,1470.381,1979.214,1527.02z"/>
									
										<ellipse transform="matrix(0.3096 -0.9509 0.9509 0.3096 -158.7319 2820.9019)" style="fill:#CCCCCC;" cx="1863.252" cy="1519.762" rx="69.724" ry="65.284"/>
									
										<ellipse transform="matrix(0.3096 -0.9509 0.9509 0.3096 -160.1613 2818.2107)" style="fill:#737373;" cx="1860.679" cy="1519.4" rx="32.506" ry="30.436"/>
								</g>
								<path style="fill:#E82728;" d="M1910.913,1444.057c-18.697,23.649-44.02,41.249-73.316,48.602
									c-1.778,0.443-3.567,0.856-5.367,1.218c-2.891,0.6-5.793,1.088-8.717,1.463c-6.575,0.865-13.224,1.22-19.864,1.053
									c-2.519-0.057-5.037-0.195-7.546-0.396l-1.905-0.157l-115.755-9.571c-0.01,0-0.01,0-0.01,0l-110.421-7.654
									c-51.931-3.25-45.805-23.034,3.828-29.928c154.621,0.637,223.82-163.667,184.725-250.011
									c-13.338-31.579,21.988-55.804,55.932-60.962c4.431-0.677,8.843-1.026,13.11-1.022c2.945-0.007,5.828,0.161,8.608,0.507
									c0.875,0.117,1.728,0.234,2.582,0.383c4.3,0.566,8.496,1.474,12.538,2.754c12.156,3.863,22.782,11.08,29.818,22.351
									l52.34,118.286C1956.935,1338.473,1944.812,1401.19,1910.913,1444.057z"/>
								<path style="fill:#FFFFFF;" d="M1901.048,1375.537c-0.435,2.904-0.96,5.759-1.557,8.575l14.357,0.615
									c0.344-1.856,0.659-3.692,0.929-5.492c6.425-42.844-5.383-77.748-5.886-79.208l-59.556-159.691
									c-4.042-1.281-13.735-2.569-16.681-2.562l63.399,168.159C1896.672,1307.789,1906.604,1338.529,1901.048,1375.537z"/>
								<g>
									<path style="fill:#FF6162;" d="M1903.029,1033.937l0,0.013c-1.53-0.189-3.097-0.236-4.688-0.13
										c-2.684,0.176-5.335,0.773-7.928,1.743c-19.319,7.174-35.475,35.095-37.731,67.489
										c-1.546,22.091,3.726,41.227,13.113,52.647c2.984,3.628,6.375,6.474,10.104,8.39l-25.155-8.756l-2.144-0.747
										c-17.342-6.826-28.784-30.92-26.878-60.302c2.231-34.321,21.848-63.36,44.446-66.61c4.095,0.13,8.331,0.469,12.697,1.038
										C1886.527,1029.699,1894.578,1031.401,1903.029,1033.937z"/>
									<path style="fill:#E82728;" d="M1848.599,1154.585l-74.055-25.775c0,0-25.898-11.756-11.114-47.034
										c0,0,33.349-56.335,102.737-54.102c-22.597,3.249-42.215,32.289-44.446,66.61
										C1819.814,1123.665,1831.256,1147.759,1848.599,1154.585z"/>
									<path style="fill:#E82728;" d="M1903.029,1033.949c-0.622,3.088-1.624,8.252-2.871,14.803
										c-4.89,25.731-13.578,72.75-18.301,98.395c-1.995,10.834-3.292,17.863-3.292,17.863l-2.666-0.922
										c-3.729-1.916-7.12-4.763-10.104-8.39c-9.387-11.421-14.659-30.556-13.113-52.647
										c2.256-32.393,18.412-60.315,37.731-67.489c2.593-0.97,5.244-1.566,7.928-1.743
										C1899.932,1033.713,1901.499,1033.761,1903.029,1033.949z"/>
									<path style="fill:#FF6162;" d="M1934.708,1097.603c-2.565,36.725-23.012,67.723-45.659,69.232
										c-4.691,0.314-9.113-0.674-13.15-2.747c-3.729-1.916-7.12-4.763-10.104-8.39c-9.387-11.421-14.659-30.556-13.113-52.647
										c2.256-32.393,18.412-60.315,37.731-67.489c2.593-0.97,5.244-1.566,7.928-1.743c1.591-0.106,3.158-0.059,4.688,0.13
										C1923.185,1036.376,1937.092,1063.454,1934.708,1097.603z"/>
									<path style="fill:#FFFFFF;" d="M1930.323,1098.009c-2.128,30.471-19.093,56.191-37.884,57.443
										c-3.892,0.261-7.562-0.559-10.911-2.279c-3.094-1.59-5.908-3.952-8.383-6.961c-7.788-9.476-12.163-25.353-10.88-43.682
										c1.872-26.877,15.277-50.044,31.306-55.996c2.152-0.805,4.351-1.3,6.578-1.446c1.32-0.088,2.62-0.049,3.89,0.108
										C1920.763,1047.208,1932.302,1069.675,1930.323,1098.009z"/>
									<g>
										<path style="fill:#222222;" d="M1791.49,1111.603l-88.112,1.96l0.21-38.205l88.085,3.026
											C1808.765,1078.004,1807.758,1111.241,1791.49,1111.603z"/>
										
											<ellipse transform="matrix(0.0247 -0.9997 0.9997 0.0247 567.2943 2770.4004)" style="fill:#222222;" cx="1703.482" cy="1094.461" rx="19.108" ry="12.214"/>
									</g>
								</g>
								<path style="fill:#B81F20;" d="M1926.111,1414.943c-3.462,10.059-8.799,19.844-15.202,29.116
									c-18.697,23.642-44.021,41.247-73.313,48.596c-4.636,1.167-9.342,2.066-14.083,2.687c-9.076,1.195-18.29,1.4-27.415,0.657
									l-1.899-0.156l-115.754-9.571c1.14-0.072,72.597,6.002,125.325-76.405
									C1849.156,1341.062,1945.028,1359.958,1926.111,1414.943z"/>
								<path style="fill:#E82728;" d="M2014.369,1510.337c0.808-0.712,1.297-1.482,1.417-2.321
									c9.813-69.009-71.958-142.751-135.6-135.493c-55.608,14.65-90.179,63.904-97.643,122.356L2014.369,1510.337z"/>
								<path style="fill:#FFA794;" d="M1712.564,1073.387c0,0,12.744-18.704,42.034-8.435
									c29.289,10.269,19.319,43.068,11.446,47.217c-7.873,4.149-35.137,7.936-31.158,0.693c3.979-7.243,8.161-19.334,1.479-29.308
									c-4.574-6.828-24.011-7.895-24.011-7.895L1712.564,1073.387z"/>
							</g>
							<path style="fill:#222222;" d="M1342.971,1204.939l-11.703-1.339l7.052-61.677l-49.443-3.093l-6.905,60.386l-11.703-1.339
								l7.54-65.945c0.356-3.115,3.094-5.392,6.219-5.209l61.216,3.831c1.611,0.101,3.111,0.859,4.147,2.097
								c1.037,1.238,1.52,2.847,1.337,4.452L1342.971,1204.939z"/>
							<polygon style="opacity:0.8;fill:#222222;" points="1204.447,1447.453 1426.191,1465.418 1417.427,1504.451 
								1202.461,1472.416 							"/>
							<path style="opacity:0.8;fill:#222222;" d="M1774.328,1494.199l205.281,13.962c0.542,14.434-0.701,27.807-4.305,39.775
								l-204.993-28.608C1770.908,1510.229,1772.073,1501.683,1774.328,1494.199z"/>
						</g>
					</g>
				</g>
				<g>
					
						<ellipse transform="matrix(0.7071 -0.7071 0.7071 0.7071 -226.1532 1076.8716)" style="fill:#56A66B;" cx="1186.822" cy="811.427" rx="62.438" ry="62.438"/>
					<polygon style="fill:#FFFFFF;" points="1183.452,840.783 1154.355,795.32 1159.242,790.156 1183.35,812.967 1256.243,748.041 
						1260.982,754.076 					"/>
				</g>
			</g>
			<defs>
				
					<filter id="Adobe_OpacityMaskFilter_00000065794086313906511160000009520911936497043895_" filterUnits="userSpaceOnUse" x="1888.103" y="1030.425" width="334.595" height="204.277">
					<feFlood  style="flood-color:white;flood-opacity:1" result="back"/>
					<feBlend  in="SourceGraphic" in2="back" mode="normal"/>
				</filter>
			</defs>
			
				<mask maskUnits="userSpaceOnUse" x="1888.103" y="1030.425" width="334.595" height="204.277" id="SVGID_00000016769372772806540750000015628441094404740284_">
				<g style="filter:url(#Adobe_OpacityMaskFilter_00000065794086313906511160000009520911936497043895_);">
					<defs>
						
							<filter id="Adobe_OpacityMaskFilter_00000119817076023414522300000006247360573091495846_" filterUnits="userSpaceOnUse" x="1888.103" y="1030.425" width="334.595" height="204.277">
							<feFlood  style="flood-color:white;flood-opacity:1" result="back"/>
							<feBlend  in="SourceGraphic" in2="back" mode="normal"/>
						</filter>
					</defs>
					
						<mask maskUnits="userSpaceOnUse" x="1888.103" y="1030.425" width="334.595" height="204.277" id="SVGID_00000016769372772806540750000015628441094404740284_">
						<g style="filter:url(#Adobe_OpacityMaskFilter_00000119817076023414522300000006247360573091495846_);">
						</g>
					</mask>
					
						<linearGradient id="SVGID_00000041270439538310635850000018445363496690041222_" gradientUnits="userSpaceOnUse" x1="1902.3635" y1="1149.101" x2="2230.186" y2="1143.3748" gradientTransform="matrix(0.9999 -0.0136 0.0136 0.9999 -15.4365 18.8901)">
						<stop  offset="0" style="stop-color:#FFFFFF"/>
						<stop  offset="1" style="stop-color:#000000"/>
					</linearGradient>
					
						<polygon style="mask:url(#SVGID_00000016769372772806540750000015628441094404740284_);fill:url(#SVGID_00000041270439538310635850000018445363496690041222_);" points="
						1900.149,1045.087 2222.698,1030.425 2189.625,1234.702 1888.103,1155.541 					"/>
				</g>
			</mask>
			
				<linearGradient id="SVGID_00000117666525247042487340000007919452834072198295_" gradientUnits="userSpaceOnUse" x1="1902.3635" y1="1149.101" x2="2230.186" y2="1143.3748" gradientTransform="matrix(0.9999 -0.0136 0.0136 0.9999 -15.4365 18.8901)">
				<stop  offset="0" style="stop-color:#FFFFFF"/>
				<stop  offset="1" style="stop-color:#000000"/>
			</linearGradient>
			<polygon style="opacity:0.5;fill:url(#SVGID_00000117666525247042487340000007919452834072198295_);" points="1900.149,1045.087 
				2222.698,1030.425 2189.625,1234.702 1888.103,1155.541 			"/>
		</g>
		<g>
			<path style="fill:#FFFFFF;" d="M943.076,834.971h-216.51c-9.397,0-17.015-7.618-17.015-17.015V691.566
				c0-9.397,7.618-17.015,17.015-17.015h216.51c9.397,0,17.015,7.618,17.015,17.015v126.391
				C960.091,827.354,952.473,834.971,943.076,834.971z"/>
			<g>
				<polygon style="fill:#FDF280;" points="757.343,790.95 759.75,798.36 767.542,798.36 761.239,802.94 763.646,810.35 
					757.343,805.77 751.039,810.35 753.447,802.94 747.144,798.36 754.935,798.36 				"/>
				<polygon style="fill:#FDF280;" points="795.647,790.95 798.054,798.36 805.846,798.36 799.542,802.94 801.95,810.35 
					795.647,805.77 789.343,810.35 791.751,802.94 785.448,798.36 793.239,798.36 				"/>
				<polygon style="fill:#FDF280;" points="833.951,790.95 836.358,798.36 844.149,798.36 837.846,802.94 840.254,810.35 
					833.951,805.77 827.647,810.35 830.055,802.94 823.751,798.36 831.543,798.36 				"/>
				<polygon style="fill:#FDF280;" points="872.254,790.95 874.662,798.36 882.453,798.36 876.15,802.94 878.558,810.35 
					872.254,805.77 865.951,810.35 868.359,802.94 862.055,798.36 869.847,798.36 				"/>
				<polygon style="fill:#FDF280;" points="910.558,790.95 912.966,798.36 920.757,798.36 914.454,802.94 916.862,810.35 
					910.558,805.77 904.255,810.35 906.662,802.94 900.359,798.36 908.151,798.36 				"/>
			</g>
			<path style="fill:#94F3F7;" d="M916.365,714.344h-54.004c-2.426,0-4.392-1.966-4.392-4.392l0,0c0-2.426,1.966-4.392,4.392-4.392
				h54.004c2.426,0,4.392,1.966,4.392,4.392l0,0C920.757,712.378,918.791,714.344,916.365,714.344z"/>
			<path style="fill:#94F3F7;" d="M916.365,733.543h-70.02c-2.426,0-4.392-1.966-4.392-4.392l0,0c0-2.426,1.966-4.392,4.392-4.392
				h70.02c2.426,0,4.392,1.966,4.392,4.392l0,0C920.757,731.577,918.791,733.543,916.365,733.543z"/>
			<path style="fill:#94F3F7;" d="M916.365,752.742h-70.02c-2.426,0-4.392-1.966-4.392-4.392l0,0c0-2.426,1.966-4.392,4.392-4.392
				h70.02c2.426,0,4.392,1.966,4.392,4.392l0,0C920.757,750.776,918.791,752.742,916.365,752.742z"/>
			<path style="fill:#94F3F7;" d="M916.365,771.941h-70.02c-2.426,0-4.392-1.966-4.392-4.392l0,0c0-2.426,1.966-4.392,4.392-4.392
				h70.02c2.426,0,4.392,1.966,4.392,4.392l0,0C920.757,769.975,918.791,771.941,916.365,771.941z"/>
			<rect x="741.16" y="702.397" style="fill:#94F3F7;" width="79.446" height="71.479"/>
		</g>
	</g>
</g>
</svg>
