<svg width="17" height="17" viewBox="0 0 17 17" fill="none" xmlns="http://www.w3.org/2000/svg">
<path d="M8.335 0C3.73188 0 0 3.73188 0 8.335C0 12.9381 3.73188 16.67 8.335 16.67C12.9381 16.67 16.67 12.9381 16.67 8.335C16.67 3.73188 12.9381 0 8.335 0ZM10.7292 11.621C10.3656 12.0635 9.89224 12.3619 9.34 12.5128C9.0999 12.578 8.99014 12.7049 9.00386 12.9553C9.01415 13.2022 9.00386 13.4458 9.00043 13.6927C9.00043 13.9122 8.88724 14.0289 8.67114 14.0357C8.53051 14.0392 8.38988 14.0426 8.24925 14.0426C8.12577 14.0426 8.00229 14.0426 7.8788 14.0392C7.64556 14.0357 7.5358 13.902 7.5358 13.6756C7.53237 13.4972 7.53237 13.3154 7.53237 13.1371C7.52894 12.7392 7.51522 12.7255 7.13449 12.6637C6.64742 12.5848 6.16721 12.4751 5.72131 12.259C5.37144 12.0875 5.33371 12.0017 5.43319 11.6313C5.50865 11.3569 5.58411 11.0825 5.66986 10.8115C5.7316 10.6125 5.78991 10.5234 5.89624 10.5234C5.95798 10.5234 6.03687 10.5542 6.1432 10.6091C6.63713 10.8664 7.16193 11.0104 7.71416 11.079C7.80677 11.0893 7.89938 11.0962 7.992 11.0962C8.24925 11.0962 8.49964 11.0482 8.74318 10.9418C9.35715 10.6743 9.45319 9.96427 8.93526 9.53895C8.76033 9.39488 8.55795 9.28855 8.34872 9.19594C7.8102 8.95927 7.25111 8.78091 6.74346 8.47563C5.92025 7.98171 5.39888 7.30599 5.46063 6.30442C5.52923 5.1725 6.17064 4.46591 7.20995 4.08861C7.6387 3.93426 7.64213 3.93769 7.64213 3.49178C7.64213 3.34086 7.6387 3.18994 7.64556 3.03559C7.65585 2.69944 7.71073 2.64113 8.04688 2.63084C8.08461 2.63084 8.12577 2.63084 8.1635 2.63084C8.22867 2.63084 8.29384 2.63084 8.35901 2.63084C8.38645 2.63084 8.41389 2.63084 8.4379 2.63084C9.07589 2.63084 9.07589 2.65828 9.07932 3.34772C9.08275 3.85537 9.08275 3.85537 9.58697 3.93426C9.97456 3.996 10.3416 4.10919 10.6983 4.26697C10.8938 4.35272 10.9693 4.48992 10.9075 4.69916C10.8183 5.00786 10.7326 5.31999 10.6366 5.62527C10.5748 5.81049 10.5165 5.89624 10.4067 5.89624C10.345 5.89624 10.2695 5.87223 10.1735 5.82421C9.67958 5.58411 9.16164 5.46749 8.61969 5.46749C8.55109 5.46749 8.47906 5.47092 8.41046 5.47435C8.24925 5.48464 8.09147 5.50522 7.94055 5.57039C7.40546 5.80363 7.31971 6.3936 7.7759 6.75718C8.00572 6.9424 8.26983 7.07275 8.5408 7.18594C9.01415 7.38145 9.48749 7.5701 9.93683 7.81706C11.35 8.60597 11.7342 10.3999 10.7292 11.621Z" fill="white"/>
</svg>
