<svg width="20" height="20" viewBox="0 0 20 20" fill="none" xmlns="http://www.w3.org/2000/svg">
<path d="M11.05 2.99999L4.20832 10.2417C3.94999 10.5167 3.69999 11.0583 3.64999 11.4333L3.34165 14.1333C3.23332 15.1083 3.93332 15.775 4.89999 15.6083L7.58332 15.15C7.95832 15.0833 8.48332 14.8083 8.74165 14.525L15.5833 7.28332C16.7667 6.03332 17.3 4.60832 15.4583 2.86665C13.625 1.14165 12.2333 1.74999 11.05 2.99999V2.99999Z" stroke="white" stroke-miterlimit="10" stroke-linecap="round" stroke-linejoin="round"/>
<path d="M9.90833 4.20831C10.083 5.32569 10.6238 6.35342 11.4458 7.13018C12.2678 7.90694 13.3245 8.38875 14.45 8.49998" stroke="white" stroke-miterlimit="10" stroke-linecap="round" stroke-linejoin="round"/>
<path d="M2.5 18.3333H17.5" stroke="white" stroke-miterlimit="10" stroke-linecap="round" stroke-linejoin="round"/>
</svg>
