<svg width="20" height="20" viewBox="0 0 20 20" fill="none" xmlns="http://www.w3.org/2000/svg">
<path d="M9.91668 18.8334C14.8414 18.8334 18.8334 14.8414 18.8334 9.91668C18.8334 4.992 14.8414 1 9.91668 1C4.992 1 1 4.992 1 9.91668C1 14.8414 4.992 18.8334 9.91668 18.8334Z" stroke="#374253" stroke-width="1.5" stroke-linecap="round" stroke-linejoin="round"/>
<path d="M6.35177 1.89165H7.24343C5.50471 7.10038 5.50471 12.7329 7.24343 17.9417H6.35177" stroke="#374253" stroke-linecap="round" stroke-linejoin="round"/>
<path d="M12.5917 1.89165C14.3304 7.10038 14.3304 12.7329 12.5917 17.9417" stroke="#374253" stroke-linecap="round" stroke-linejoin="round"/>
<path d="M1.89166 13.4833V12.5917C7.1004 14.3304 12.7329 14.3304 17.9417 12.5917V13.4833" stroke="#374253" stroke-linecap="round" stroke-linejoin="round"/>
<path d="M1.89166 7.24343C7.1004 5.50471 12.7329 5.50471 17.9417 7.24343" stroke="#374253" stroke-linecap="round" stroke-linejoin="round"/>
</svg>
