<svg width="24" height="24" viewBox="0 0 24 24" fill="none" xmlns="http://www.w3.org/2000/svg">
<path d="M13.8742 2.8025L15.7809 6.61583C16.0409 7.14667 16.7342 7.65583 17.3192 7.75333L20.775 8.3275C22.985 8.69583 23.505 10.2992 21.9125 11.8808L19.2259 14.5675C18.7709 15.0225 18.5217 15.9 18.6625 16.5283L19.4317 19.8542C20.0384 22.4867 18.6409 23.505 16.3117 22.1292L13.0725 20.2117C12.4875 19.865 11.5234 19.865 10.9275 20.2117L7.68836 22.1292C5.37002 23.505 3.96169 22.4758 4.56836 19.8542L5.33752 16.5283C5.47836 15.9 5.22919 15.0225 4.77419 14.5675L2.08752 11.8808C0.505857 10.2992 1.01502 8.69583 3.22502 8.3275L6.68086 7.75333C7.25502 7.65583 7.94836 7.14667 8.20836 6.61583L10.115 2.8025C11.155 0.733334 12.845 0.733334 13.8742 2.8025V2.8025Z" stroke="#374253" stroke-width="1.5" stroke-linecap="round" stroke-linejoin="round"/>
</svg>
