<svg width="26" height="26" viewBox="0 0 26 26" fill="none" xmlns="http://www.w3.org/2000/svg">
<path d="M8.66667 4.33333H22.75V6.5H8.66667V4.33333ZM5.41667 3.25V6.5H6.5V7.58333H3.25V6.5H4.33333V4.33333H3.25V3.25H5.41667ZM3.25 15.1667V12.4583H5.41667V11.9167H3.25V10.8333H6.5V13.5417H4.33333V14.0833H6.5V15.1667H3.25ZM5.41667 21.125H3.25V20.0417H5.41667V19.5H3.25V18.4167H6.5V22.75H3.25V21.6667H5.41667V21.125ZM8.66667 11.9167H22.75V14.0833H8.66667V11.9167ZM8.66667 19.5H22.75V21.6667H8.66667V19.5Z" fill="#374253"/>
</svg>
