<svg width="32" height="32" viewBox="0 0 32 32" fill="none" xmlns="http://www.w3.org/2000/svg">
<rect width="32" height="32" rx="8" fill="#E9F0FE"/>
<path d="M20.9363 12.8603C18.613 11.5608 14.8839 9.47413 9.09983 6.23549C8.70987 5.97795 8.26119 5.9442 7.87354 6.07541L17.7974 15.9993L20.9363 12.8603Z" fill="#32BBFF"/>
<path d="M7.87356 6.07544C7.8009 6.10005 7.7302 6.12974 7.66258 6.1656C7.23449 6.39716 6.91992 6.84275 6.91992 7.4063V24.5923C6.91992 25.1558 7.23445 25.6014 7.66258 25.8329C7.73008 25.8688 7.80074 25.8986 7.87332 25.9233L17.7974 15.9993L7.87356 6.07544Z" fill="#32BBFF"/>
<path d="M17.7974 15.9993L7.87329 25.9233C8.26107 26.0555 8.70974 26.0243 9.09982 25.763C14.7091 22.622 18.3962 20.5601 20.7464 19.2495C20.8118 19.2128 20.8759 19.1768 20.9393 19.1412L17.7974 15.9993Z" fill="#32BBFF"/>
<path d="M6.91992 15.9993V24.5923C6.91992 25.1558 7.23445 25.6014 7.66258 25.8329C7.73008 25.8687 7.80074 25.8985 7.87332 25.9233L17.7974 15.9993H6.91992Z" fill="#2C9FD9"/>
<path d="M9.09987 6.23547C8.63678 5.92968 8.09068 5.93839 7.6626 6.16558L17.6468 16.1498L20.9363 12.8603C18.613 11.5608 14.8839 9.47411 9.09987 6.23547Z" fill="#29CC5E"/>
<path d="M17.6469 15.8486L7.6626 25.8328C8.09072 26.06 8.63678 26.0731 9.09987 25.7629C14.7092 22.6219 18.3962 20.56 20.7465 19.2494C20.8119 19.2127 20.876 19.1767 20.9393 19.1411L17.6469 15.8486Z" fill="#D93F21"/>
<path d="M25.0802 15.9992C25.0802 15.523 24.8399 15.0425 24.3637 14.776C24.3637 14.776 23.4731 14.2791 20.7433 12.7522L17.4963 15.9992L20.7465 19.2494C23.4463 17.7335 24.3637 17.2224 24.3637 17.2224C24.8399 16.9559 25.0802 16.4754 25.0802 15.9992Z" fill="#FFD500"/>
<path d="M24.3637 17.2225C24.8399 16.956 25.0802 16.4754 25.0802 15.9993H17.4963L20.7465 19.2495C23.4464 17.7336 24.3637 17.2225 24.3637 17.2225Z" fill="#FFAA00"/>
</svg>
