<svg width="22" height="24" viewBox="0 0 22 24" fill="none" xmlns="http://www.w3.org/2000/svg">
<path d="M11 12.8125C7.56581 12.8125 4.77081 10.0175 4.77081 6.58333C4.77081 3.14916 7.56581 0.354164 11 0.354164C14.4341 0.354164 17.2291 3.14916 17.2291 6.58333C17.2291 10.0175 14.4341 12.8125 11 12.8125ZM11 1.97916C9.77976 1.98203 8.61033 2.46802 7.7475 3.33085C6.88467 4.19368 6.39867 5.36311 6.39581 6.58333C6.39867 7.80355 6.88467 8.97298 7.7475 9.83581C8.61033 10.6986 9.77976 11.1846 11 11.1875C12.2202 11.1846 13.3896 10.6986 14.2525 9.83581C15.1153 8.97298 15.6013 7.80355 15.6041 6.58333C15.6013 5.36311 15.1153 4.19368 14.2525 3.33085C13.3896 2.46802 12.2202 1.98203 11 1.97916Z" fill="#374253"/>
<path d="M20.3058 23.6458C19.8617 23.6458 19.4933 23.2775 19.4933 22.8333C19.4933 19.0958 15.68 16.0625 11 16.0625C6.31998 16.0625 2.50665 19.0958 2.50665 22.8333C2.50665 23.2775 2.13832 23.6458 1.69415 23.6458C1.24999 23.6458 0.881653 23.2775 0.881653 22.8333C0.881653 18.2075 5.42082 14.4375 11 14.4375C16.5792 14.4375 21.1183 18.2075 21.1183 22.8333C21.1183 23.2775 20.75 23.6458 20.3058 23.6458Z" fill="#374253"/>
</svg>
