<svg width="501" height="118" viewBox="0 0 501 118" fill="none" xmlns="http://www.w3.org/2000/svg">
<g clip-path="url(#clip0_501_12)">
<path d="M58.91 0C26.536 0 0 26.2458 0 58.2656C0 90.2854 26.536 116.531 58.91 116.531C91.2839 116.531 117.82 90.2854 117.82 58.2656C117.82 26.2458 91.8146 0 58.91 0ZM87.5689 44.6178H81.7309V89.2356L72.7087 96.5844V44.6178H62.625C59.9714 60.8902 39.2733 62.4649 39.2733 62.4649L66.34 96.5844H54.6642L28.1282 63.5147V56.6908C38.7426 57.7407 51.4799 56.1659 53.072 44.6178H26.0053L30.2511 37.269H52.0106C47.2341 27.8205 26.0053 29.9202 26.0053 29.9202L30.2511 23.0963C35.5583 23.0963 59.4407 21.5215 62.625 37.269H72.7087V29.3952L81.7309 22.5714V36.7441H92.3453L87.5689 44.6178Z" fill="#14B8BE"/>
<path d="M172.484 70.3386H161.339V91.8602H144.887V24.671H176.73C189.998 24.671 205.389 28.8704 205.389 47.2424C205.389 57.7407 197.959 65.0895 188.937 67.7141C197.428 76.6376 204.858 87.1359 208.573 92.3851H188.406C183.099 82.9366 177.261 75.0629 172.484 70.3386ZM188.937 47.2424C188.937 41.4683 184.16 38.3188 174.607 38.3188H162.4V57.2158H175.138C184.16 56.6909 188.937 54.0663 188.937 47.2424Z" fill="#14B8BE"/>
<path d="M231.925 79.7871L228.21 91.8602H211.227C218.657 68.239 228.21 43.0431 237.232 24.671H260.053C269.606 45.1427 279.69 70.3387 286.589 91.8602H268.545L264.299 79.7871H231.925ZM247.847 36.7441C243.601 46.1926 239.886 56.166 236.171 66.6643H258.992C256.338 56.6909 252.623 47.2424 247.847 36.7441Z" fill="#14B8BE"/>
<path d="M345.499 26.7707V40.9434C336.477 38.8437 330.639 37.269 320.555 37.269C311.002 37.269 307.818 39.8935 307.818 43.043C307.818 45.1427 309.41 47.2424 314.717 48.8171L332.762 53.5413C345.499 56.6908 350.275 62.9898 350.275 71.9134C350.275 85.5612 340.192 93.4349 320.024 93.4349C307.287 93.4349 299.857 91.8602 292.427 89.7605V75.0629C299.857 77.1625 311.002 79.2622 318.432 79.2622C329.047 79.2622 333.823 77.6874 333.823 73.4881C333.823 70.3386 330.639 68.239 324.801 66.6642L307.287 62.4649C297.203 59.8403 291.365 53.0164 291.365 44.0929C291.365 30.4451 301.449 23.6212 322.147 23.6212C331.17 23.0963 339.661 25.1959 345.499 26.7707Z" fill="#14B8BE"/>
<path d="M375.219 79.7871L371.504 91.8602H354.521C361.951 68.239 371.504 43.0431 379.996 24.671H402.817C412.37 45.1427 422.453 70.3387 429.353 91.8602H411.308L407.063 79.7871H375.219ZM391.141 36.7441C386.895 46.1926 383.18 56.166 379.465 66.6643H402.286C399.102 56.6909 395.917 47.2424 391.141 36.7441Z" fill="#14B8BE"/>
<path d="M453.235 46.7175V92.3851H437.313V24.671H455.889L485.078 66.6642V24.671H501V91.8602H485.078L453.235 46.7175Z" fill="#14B8BE"/>
</g>
<defs>
<clipPath id="clip0_501_12">
<rect width="501" height="117.056" fill="white"/>
</clipPath>
</defs>
</svg>
