<svg width="10" height="10" viewBox="0 0 10 10" fill="none" xmlns="http://www.w3.org/2000/svg">
<path d="M5 0C4.0111 0 3.0444 0.293245 2.22215 0.842652C1.39991 1.39206 0.759043 2.17295 0.380605 3.08658C0.00216642 4.00021 -0.0968503 5.00555 0.0960759 5.97545C0.289002 6.94536 0.765206 7.83627 1.46447 8.53553C2.16373 9.23479 3.05465 9.711 4.02455 9.90392C4.99446 10.0969 5.99979 9.99783 6.91342 9.6194C7.82705 9.24096 8.60794 8.6001 9.15735 7.77785C9.70676 6.9556 10 5.98891 10 5C10 4.34339 9.87067 3.69321 9.6194 3.08658C9.36813 2.47995 8.99983 1.92876 8.53554 1.46447C8.07124 1.00017 7.52005 0.631876 6.91342 0.380602C6.30679 0.129329 5.65661 0 5 0ZM7.84 4.77L6.775 5.86L7.025 7.41C7.04232 7.50422 7.03221 7.60144 6.99587 7.69008C6.95953 7.77872 6.89848 7.85505 6.82 7.91C6.74291 7.96347 6.65232 7.99418 6.55859 7.9986C6.46487 8.00302 6.37179 7.98098 6.29 7.935L5 7.21L3.7 7.925C3.62729 7.96782 3.54439 7.99027 3.46 7.99C3.35634 7.99079 3.255 7.95933 3.17 7.9C3.09152 7.84505 3.03048 7.76872 2.99414 7.68008C2.95779 7.59144 2.94768 7.49422 2.965 7.4L3.22 5.85L2.15 4.77C2.08532 4.70408 2.04016 4.62153 2.01952 4.53152C1.99889 4.4415 2.00359 4.34752 2.03311 4.26001C2.06262 4.1725 2.1158 4.09487 2.18674 4.03574C2.25768 3.97661 2.34361 3.93828 2.435 3.925L3.89 3.7L4.545 2.31C4.58218 2.21947 4.64511 2.14184 4.72599 2.08673C4.80687 2.03163 4.90215 2.00147 5 2C5.09509 1.99932 5.18841 2.02577 5.269 2.07625C5.34959 2.12673 5.41411 2.19914 5.455 2.285L6.105 3.7L7.56 3.925C7.65105 3.9386 7.73658 3.97708 7.80716 4.03619C7.87774 4.0953 7.93063 4.17275 7.96 4.26C7.98913 4.34779 7.99334 4.44194 7.97215 4.53198C7.95096 4.62201 7.90522 4.70441 7.84 4.77Z" fill="#FF6F00"/>
</svg>
