<svg width="32" height="32" viewBox="0 0 32 32" fill="none" xmlns="http://www.w3.org/2000/svg">
<rect width="32" height="32" rx="8" fill="#EB1214"/>
<path d="M23.9525 11.4149C24.3333 12.8999 24.3333 15.9999 24.3333 15.9999C24.3333 15.9999 24.3333 19.0999 23.9525 20.5849C23.7408 21.4057 23.1216 22.0516 22.3375 22.2699C20.9133 22.6666 16 22.6666 16 22.6666C16 22.6666 11.0891 22.6666 9.66246 22.2699C8.87496 22.0482 8.25663 21.4032 8.04746 20.5849C7.66663 19.0999 7.66663 15.9999 7.66663 15.9999C7.66663 15.9999 7.66663 12.8999 8.04746 11.4149C8.25913 10.5941 8.87829 9.94825 9.66246 9.72992C11.0891 9.33325 16 9.33325 16 9.33325C16 9.33325 20.9133 9.33325 22.3375 9.72992C23.125 9.95158 23.7433 10.5966 23.9525 11.4149ZM14.3333 18.9166L19.3333 15.9999L14.3333 13.0833V18.9166Z" fill="white"/>
</svg>
